<?xml version="1.0" standalone="no"?><!DOCTYPE svg PUBLIC "-//W3C//DTD SVG 1.1//EN" "http://www.w3.org/Graphics/SVG/1.1/DTD/svg11.dtd"><svg t="1691988139863" class="icon" viewBox="0 0 1024 1024" version="1.1" xmlns="http://www.w3.org/2000/svg" p-id="10342" width="16" height="16" xmlns:xlink="http://www.w3.org/1999/xlink"><path d="M967.715178 239.210493v-89.544035c0-44.772017-36.457214-81.229232-80.589631-81.229231H136.234853c-44.772017 0-80.589631 36.457214-80.589631 81.229231v89.544035h912.069956z m0 74.83323H55.645222v561.569019c0 44.772017 36.457214 81.229232 80.589631 81.229232h750.890694c44.772017 0 80.589631-36.457214 80.589631-81.229232V314.043723zM93.381636 0h837.236728c51.16802 0 92.742036 42.213616 92.742036 93.381636v837.236728c0 51.16802-41.574016 93.381636-92.742036 93.381636H92.742036C41.574016 1023.3604 0 981.786384 0 929.978763V92.742036C0 41.574016 41.574016 0 93.381636 0z m69.076827 197.636477c-18.548407 0-37.096814-18.548407-37.096814-37.096814s18.548407-37.096814 37.096814-37.096815h37.096815c18.548407 0 37.096814 18.548407 37.096814 37.096815s-18.548407 37.096814-37.096814 37.096814h-37.096815z m138.793255 0c-18.548407 0-37.096814-18.548407-37.096815-37.096814s18.548407-37.096814 37.096815-37.096815h37.096814c18.548407 0 37.096814 18.548407 37.096815 37.096815s-18.548407 37.096814-37.096815 37.096814h-37.096814z m138.793254 0c-18.548407 0-37.096814-18.548407-37.096815-37.096814s18.548407-37.096814 37.096815-37.096815h37.096814c18.548407 0 37.096814 18.548407 37.096815 37.096815s-18.548407 37.096814-37.096815 37.096814h-37.096814z m-68.437227 567.325422l-28.142411-74.193629h-134.316052l-27.502811 74.193629H112.569644l129.19925-335.150531h69.716428l134.316052 335.150531H371.607745z m-94.021237-255.8401l-46.690818 126.001249h92.742036l-46.051218-126.001249z m234.733292-78.670831h106.173642c41.574016 0 55.005621 0 80.589631 3.837602 16.629606 3.837601 35.817614 10.873204 46.690818 31.980012 10.873204 21.106808 16.629606 39.015615 16.629607 66.518426 0 18.548407-2.558401 37.736415-8.314803 52.447221-5.756402 14.710806-26.22361 40.294816-63.320425 45.411617-19.188007 4.477202-34.538413 4.477202-67.158026 4.477202H582.036227v130.478451H512.3198V430.450968z m69.716427 60.122424v92.742036h37.096815c27.502811 0 39.015615 0 51.16802-3.837602 10.233604-3.198001 19.188007-9.594004 25.58401-18.548407 4.477202-7.035603 6.396002-13.431605 6.396002-29.421611 0-15.350406-5.116802-23.665209-8.954403-29.421612-7.035603-8.954403-14.071205-12.152405-27.502811-12.152405H582.036227v0.639601z m241.768895 274.388507V430.450968h64.599625v335.150531h-64.599625z" fill="#AFB1B3" p-id="10343"></path></svg>