<?xml version="1.0" standalone="no"?><!DOCTYPE svg PUBLIC "-//W3C//DTD SVG 1.1//EN" "http://www.w3.org/Graphics/SVG/1.1/DTD/svg11.dtd"><svg t="1691051521400" class="icon" viewBox="0 0 1024 1024" version="1.1" xmlns="http://www.w3.org/2000/svg" p-id="11639" width="16" height="16" xmlns:xlink="http://www.w3.org/1999/xlink"><path d="M964.656762 633.904762a48.761905 48.761905 0 0 1 37.766095 79.62819l-76.8 93.93981V965.485714l-72.313905-19.407238v-165.766095L913.237333 707.047619H741.668571L804.571429 779.946667v153.039238l-72.874667-19.577905V807.497143l-80.188952-92.940191A48.761905 48.761905 0 0 1 688.420571 633.904762h276.236191zM146.285714 344.234667l343.28381 141.653333-1.804191 428.568381a73.216 73.216 0 0 1-2.730666-1.170286L189.732571 782.165333A73.142857 73.142857 0 0 1 146.285714 715.312762V344.259048z m736.841143 16.798476V585.142857h-190.122667a97.52381 97.52381 0 0 0-68.681142 28.281905l-3.803429 3.998476a97.52381 97.52381 0 0 0 7.241143 137.752381L682.666667 804.571429v47.299047l-121.709715 54.052572 1.731048-416.963048 320.438857-127.926857zM544.402286 110.689524l295.253333 131.120762a73.142857 73.142857 0 0 1 39.15581 42.057143l-350.549334 138.825142-370.736762-152.990476c7.558095-12.04419 18.651429-21.869714 32.207238-27.891809l295.302096-131.120762a73.142857 73.142857 0 0 1 59.367619 0z" p-id="11640" fill="#6E6E6E"></path></svg>