<?xml version="1.0" standalone="no"?><!DOCTYPE svg PUBLIC "-//W3C//DTD SVG 1.1//EN" "http://www.w3.org/Graphics/SVG/1.1/DTD/svg11.dtd"><svg t="1691051857169" class="icon" viewBox="0 0 1024 1024" version="1.1" xmlns="http://www.w3.org/2000/svg" p-id="13637" id="mx_n_1691051857170" width="16" height="16" xmlns:xlink="http://www.w3.org/1999/xlink"><path d="M952.251398 73.882708c-4.620227-4.591575-16.012695-6.857175-32.485879-6.857175-86.053911 0-310.699298 62.10036-430.892751 181.13236-28.334325 28.065196-122.212436 113.63406-144.011928 142.605905-70.50375 19.120476-173.174108 57.384965-230.41581 114.071012 0 0 69.850881 0.270153 155.095357 54.038754-12.386098 50.0233 3.322675 102.820784 46.52564 145.593959 33.646308 33.32499 73.444732 50.15019 113.260553 50.15019 11.304464 0 22.594601-1.36816 33.772174-4.076852 54.301743 84.407412 54.578036 153.574724 54.578036 153.574724 57.242725-56.685024 95.881744-158.345378 115.192555-228.158397 29.257348-21.592784 115.677603-114.547873 144.020114-142.612045C920.068418 391.59063 981.047234 102.396111 952.251398 73.882708M593.595878 665.304572c-14.899338 53.822836-34.488489 103.09196-56.233746 142.66014-8.943696-23.890107-21.711488-50.834782-39.886429-79.090313-7.601118-11.797697-20.670785-18.666128-34.376948-18.666128-3.220345 0-6.479575 0.364297-9.699919 1.161453-7.941879 1.923816-16.035208 2.908236-24.073278 2.908236-29.949103 0-59.143005-13.252839-84.464717-38.319747-32.29452-31.992645-45.007053-70.15378-35.775808-107.47171 4.173043-16.807804-2.942005-34.345226-17.666358-43.623543-28.557406-18.022469-55.747675-30.648021-79.869049-39.504736 39.95806-21.545712 89.695858-40.944528 144.076396-55.700603 1.065262-0.270153 1.962701-0.985444 3.019777-1.375324l236.340753 234.050594C594.605881 663.346987 593.889567 664.21475 593.595878 665.304572M748.087485 504.83481c-8.054443 7.973602-20.74344 21.107737-35.459606 36.372396-26.235524 27.182083-66.608024 68.969814-90.593298 90.847078L389.192511 401.496234c22.078855-23.756053 64.303538-63.729463 91.747587-89.688695 15.416108-14.588253 28.685319-27.13501 36.737716-35.133172C627.861286 167.565367 839.659063 107.833961 918.851707 107.381659 918.717653 172.708504 863.127568 390.921387 748.087485 504.83481M221.512535 562.498114 63.658344 954.409039l395.783115-156.312068c-7.059789 0.804319-14.07967 1.186012-21.100574 1.186012C317.258179 799.282982 207.606827 683.34239 221.512535 562.498114M136.610866 882.171808l73.620741-182.777837c9.905604 18.111496 22.156626 35.364439 36.555567 51.318806 21.759583 24.161283 46.962591 43.920302 74.272587 58.610886L136.610866 882.171808zM491.06776 389.713886c-11.257391 0-20.36891 9.023514-20.36891 20.169365s9.111518 20.169365 20.36891 20.169365c11.256368 0 20.36891-9.023514 20.36891-20.169365S502.325152 389.713886 491.06776 389.713886M613.26587 551.057551c11.248182 0 20.3597-9.023514 20.3597-20.170388s-9.111518-20.169365-20.3597-20.169365c-11.257391 0-20.36891 9.023514-20.36891 20.169365S602.008478 551.057551 613.26587 551.057551M735.46091 349.389482c33.749662 0 61.098543-27.110451 61.098543-60.501956 0-33.406854-27.348881-60.501956-61.098543-60.501956-33.748638 0-61.09752 27.095102-61.09752 60.501956C674.36339 322.279031 701.711248 349.389482 735.46091 349.389482M735.46091 268.717138c11.258415 0 20.360723 9.023514 20.360723 20.169365s-9.103332 20.162202-20.360723 20.162202c-11.257391 0-20.36891-9.015328-20.36891-20.162202S724.203518 268.717138 735.46091 268.717138M552.166303 490.555595c11.258415 0 20.360723-9.023514 20.360723-20.170388 0-11.145851-9.103332-20.169365-20.360723-20.169365-11.257391 0-20.367887 9.023514-20.367887 20.169365C531.798417 481.532081 540.908912 490.555595 552.166303 490.555595" fill="#AFB1B3" p-id="13638"></path></svg>