<?xml version="1.0" standalone="no"?><!DOCTYPE svg PUBLIC "-//W3C//DTD SVG 1.1//EN" "http://www.w3.org/Graphics/SVG/1.1/DTD/svg11.dtd"><svg t="1692000470610" class="icon" viewBox="0 0 1339 1024" version="1.1" xmlns="http://www.w3.org/2000/svg" p-id="10306" width="52.3046875" height="40" xmlns:xlink="http://www.w3.org/1999/xlink"><path d="M1275.81495823 540.28622937c0 238.98977719-193.96271808 432.95249532-432.9524963 432.95249625-43.29524999 0-88.32230906-12.12267001-127.86530342-23.95670531 164.81058375-61.19061937 288.05772654-214.16716781 288.05772745-400.33674095 0-15.87492469 0.2886347-31.46121469 0.28863474-46.75886905 0-15.58629001-0.865905-30.59530967-1.15453969-43.29525-1.73180998-75.62236875 58.59290437-136.81298813 134.21527317-136.81298812 58.3042697 0 107.94948844 36.36800997 127.86530341 87.45640406 2.59771501 8.08177969 4.90679531 16.452195 6.92724001 24.82260938 8.65905001 33.770295 4.61815969 69.27239905 4.61816063 105.92904374z" fill="#AFEBE1" p-id="10307"></path><path d="M408.17815665 963.71377061h-51.95429907c-0.2886347-7.50451031-4.90679531-13.56584529-11.54539969-16.452195H107.70912541l86.01322871-66.38604936 13.27720969-10.10222531c2.02044469-3.17498527 3.17498527-6.92724 3.17498534-10.96812939 0-5.48406469-2.02044469-10.67949468-5.48406561-14.4317503l17.31809996-13.56584438c39.54299437 46.75886906 88.32230906 85.43595936 143.45159346 113.14491845 1.15453969 0.57727029 2.59771501 1.15453969 3.7522556 2.0204456 12.41130469 6.061335 25.39987969 11.54539969 38.96572409 16.74082969z" fill="#7FCFD6" p-id="10308"></path><path d="M567.2160401 537.39987969m-430.06614565 0a430.06614559 430.06614559 0 1 0 860.13229125 0 430.06614559 430.06614559 0 1 0-860.13229125 0Z" fill="#F48975" p-id="10309"></path><path d="M625.80894447 965.15694495c-15.00901971 1.44317532-30.01803936 2.30908033-45.60432939 2.30908036-237.54660282 0-430.06614559-192.51954281-430.06614562-430.06614562s192.51954281-430.06614559 430.06614562-430.06614563c15.29765437 0 30.59530967 0.865905 45.60432939 2.30908031-216.1876125 22.80216469-384.75045095 205.50811781-384.75045095 427.75706532s168.56283842 404.9549006 384.75045095 427.75706534z" fill="#F26777" p-id="10310"></path><path d="M985.15951567 377.78472594c0 10.10222531-8.37041532 18.47263968-18.76127437 18.47264063-5.19543001 0-10.10222531-2.30908033-13.2772106-5.77270032-1.73180998-4.32952498-3.46362-8.65905001-5.48406467-12.988575-46.47023438-107.66085375-137.10162371-191.94227344-248.80336688-229.75345782-4.61815969-1.44317532-9.23632031-3.17498527-14.14311564-4.32952498-13.2772097-4.04089031-26.84305499-7.2158747-40.69753402-10.1022244-4.90679531-0.865905-9.81358969-1.73180998-15.00901973-2.59771499-20.78172-3.17498527-41.85207469-4.90679531-63.21106499-4.90679531-45.89296407 0-90.34275375 7.50451031-131.61755811 21.35899031-4.61815969 1.44317532-9.23632031 3.17498527-13.85448003 4.90679438-9.81358969-0.57727029-17.60673468-8.65905001-17.60673469-18.76127439 0-5.48406469 2.30908033-10.67949468 6.3499697-14.14311468 4.32952498-1.73180998 8.65905001-3.17498527 13.27720966-4.61816062 45.027059-15.29765437 93.51773906-23.379435 143.45159347-23.37943407 40.697535 0 79.95189374 5.48406469 117.47444436 15.58629 5.19543001 1.44317532 10.10222531 2.88634969 15.29765442 4.32952407 13.85448 4.32952498 27.42032437 9.23632031 40.69753496 14.720385l13.85447997 6.061335c101.31088407 46.47023438 182.41731845 129.30847875 226.28983784 231.7739025 2.02044469 5.19543001 4.04089031 9.52495501 5.77269936 14.14311469z" p-id="10311"></path><path d="M1080.98633507 533.35898939v8.3704153c0 10.39086001-0.57727029 20.49308443-1.44317524 30.59530967-0.2886347 1.73180998-0.2886347 3.75225469-0.5772704 5.77270033-14.72038501 139.12206844-113.72218875 253.13289281-245.05111219 290.07817122 107.66085375-77.64281437 178.08779344-203.48767312 180.10823816-345.78472592V516.90679531c0-10.39086001-0.2886347-21.0703547-1.15453968-31.17258-0.865905-10.39086001-1.73180998-20.78172-3.46362002-31.17258 0-30.59530967 9.52495501-59.17017469 25.97715004-82.54960874 0 0.2886347 0.2886347 0.2886347 0.28863466 0.5772703l4.32952496-6.92724002c13.56584529-17.02946435 30.88394438-31.17258002 50.79975942-40.69753497h0.28863471c5.48406469-2.30908033 11.256765-4.04089031 17.31809995-5.48406469-21.35898939 44.44978967-30.59530967 94.96091438-30.59530971 148.06975314 0 4.61815969 0 8.94768469 0.28863471 13.56584532 0.57727029 16.452195 0.865905 32.32711969 2.3090803 48.49067906 0.57727029 0.865905 0.57727029 2.30908033 0.57727033 3.75225468z" fill="#7FCFD6" p-id="10312"></path><path d="M1290.24670754 445.61395063V548.65664465c-5.19543001 243.89657249-205.21948315 440.45700562-450.27059525 440.45700568-14.4317503 0-28.28622937-0.57727029-42.42934407-2.02044563-4.90679531-0.57727029-9.81358969-0.865905-15.00902063-1.73181-5.77270032-3.17498527-9.52495501-9.23632031-9.52495504-16.1635594 0-1.44317532 0.2886347-3.17498527 0.57727038-4.61815967 1.73180998-6.63860531 6.63860531-11.83403527 13.27720965-13.56584528 4.61815969 0.57727029 9.23632031 1.15453969 13.85447998 1.44317527 12.988575 1.15453969 25.97715001 1.73180998 39.25435973 1.73181001 229.17618749 0 415.63439527-186.45820781 415.63439529-415.63439626v-93.2291034c0-37.23391501-17.02946435-70.71557438-43.87251941-92.6518341-20.78172-17.02946435-47.04750469-27.13168969-75.91100437-27.13168968-66.09741469 0-119.78352377 53.68610906-119.78352379 119.78352378v96.11545402c0 17.3181-0.865905 34.34756438-2.88634959 51.08839406-0.2886347 2.88634969-0.57727029 5.77270032-1.15453969 8.37041532-5.19543001 39.83163003-15.87492469 77.93144906-30.59530974 113.72218873-40.697535 97.26999374-114.58809375 177.51052315-207.52856341 226.00120226l-12.12266904 6.06133497-20.78172002 9.52495499c-6.92724 2.88634969-14.14311468 5.77270032-21.35899037 8.37041531-4.04089031 1.44317532-8.08177969 2.88634969-12.41130465 4.32952499-44.44978967 14.72038501-92.07456375 22.80216469-141.71978341 22.80216468-55.41791905 0-108.52675875-10.10222531-157.59470813-28.57486501-13.2772097-4.90679531-26.55441939-10.67949468-39.25435967-17.02946435-1.44317532-0.57727029-2.59771501-1.15453969-3.75225471-2.02044563-55.12928437-27.70896001-103.90859906-66.38604937-143.45159343-113.14491845-66.09741469-77.64281437-105.92904375-178.95369844-105.92904469-289.21226717 0-172.89236346 97.84726407-323.27119687 241.29885747-398.89356562 2.88634969-1.44317532 6.061335-3.17498527 8.94768568-4.61816062 1.15453969-0.2886347 2.30908033-0.2886347 3.75225465-0.2886347 6.63860531 0 12.41130469 3.46362 15.87492463 8.65904998 0 0.2886347 0.2886347 0.2886347 0.28863478 0.57727033 1.73180998 2.88634969 2.59771501 6.061335 2.59771497 9.524955 0 4.04089031-1.15453969 7.793145-3.46361998 10.96812939-5.19543001 2.59771501-10.39086001 5.19543001-15.2976544 7.79314499C239.03804887 245.5898975 150.13846946 383.55742625 150.13846946 541.72940469c0 122.95850907 53.68610906 233.79434719 138.83343374 309.70535156 12.988575 11.54539969 26.55441939 22.51352999 40.98616968 32.32711969 16.452195 11.54539969 34.05892969 21.647625 52.24293378 30.88394532 54.84064969 27.13168969 116.89717408 42.429345 182.1286837 42.71797874h1.44317438c12.988575 0 25.68851439-0.57727029 38.38845467-1.73181001 16.452195-1.44317532 32.61575438-4.04089031 48.49068-7.50450938 3.75225469-0.865905 7.50451031-1.73180998 10.96812941-2.59771497 14.72038501-3.46362 29.15213437-8.08177969 43.29525001-12.98857503 3.75225469-1.44317532 7.50451031-2.88634969 10.96812936-4.32952498 139.41070311-55.12928437 242.1647625-183.5718581 260.34876754-337.70294626 2.02044469-16.16355935 2.88634969-32.61575438 2.88634968-49.06794934v-96.1154541c0-6.63860531 0.57727029-13.2772097 1.15454058-19.91581502 0.57727029-3.46362 0.865905-6.63860531 1.73181-9.81358967 1.44317532-7.793145 3.75225469-15.29765437 6.34996973-22.80216468v-0.28863563c21.647625-59.17017469 78.50871937-101.59951875 145.18340345-101.59951873 14.4317503 0 28.57486503 2.02044469 41.85207464 5.77270031 23.09079937 6.63860531 44.161155 18.47263968 61.47925408 34.34756438 8.08177969 7.50451031 15.58629001 15.87492469 22.22489531 24.82260937 18.47263968 25.39987969 29.15213437 56.28382405 29.15213434 89.76548436zM355.93522194 964.57967563c0 7.793145-4.90679531 14.4317503-11.54539966 17.31809906H57.19800069c-12.41130469 0-22.51352999-10.10222531-22.51352997-22.22489436 0-3.75225469 0.865905-7.50451031 2.88634963-10.67949471l13.85448004-10.67949468 115.74263438-89.18821405 14.14311465-10.96813032c1.73180998-0.57727029 3.75225469-0.865905 5.77269939-0.86590502 6.92724 0 12.988575 2.88634969 17.0294653 7.50451032 3.46362 4.04089031 5.48406469 8.94768469 5.48406468 14.43174939 0 4.04089031-1.15453969 7.793145-3.17498529 10.9681303l-13.27720965 10.10222438-86.01322879 66.38604939h236.96933252c6.63860531 2.59771501 11.256765 8.94768469 11.54539968 16.45219499 0.2886347 0.865905 0.2886347 1.15453969 0.28863467 1.44317531z" p-id="10313"></path><path d="M813.4216929 574.92242938c-1.15453969 9.23632031-8.94768469 16.16355935-18.47263968 16.16355935-6.061335 0-11.54539969-2.88634969-15.00902069-7.50450935-0.865905-2.02044469-1.44317532-4.32952498-2.30907935-6.34996971-0.2886347-1.15453969-0.865905-2.02044469-1.15454059-3.17498528-23.379435-57.43836469-67.54058907-102.46542375-124.40168345-127.28803406-93.80637373-40.98616967-203.77630782 2.02044469-244.76247755 95.82681938-32.038485 73.31328937 1.44317532 159.32651813 75.0450994 191.36500309 27.70896001 12.12267001 58.3042697 12.69994026 86.30186441 1.73180998 27.99759469-10.96813031 50.22248906-32.32711969 62.05652442-59.74744405 9.23632031-21.35898939 9.81358969-44.73842438 1.15453965-66.38604935-8.37041532-21.647625-24.82260938-38.67708938-46.18159967-47.91340969-24.53397469-10.67949468-51.95429909-5.19543001-70.71557441 11.54539968-2.88634969 2.59771501-5.48406469 5.48406469-7.79314504 8.65905-2.59771501 1.44317532-5.77270032 2.30908033-9.23631939 2.30908029-10.39086001 0-18.76127437-8.37041532-18.76127525-18.76127529 0-1.73180998 0.2886347-3.46362 0.57727034-5.19543 3.46362-4.61815969 7.50451031-8.65905001 11.54539967-12.41130468 28.28622937-25.97715001 70.42693969-34.05892969 107.94948934-17.89537032 29.72940469 12.988575 52.53156935 36.65664465 64.36560376 66.96331969 11.83403527 30.306675 11.256765 63.21106409-1.73180997 92.94046873-15.87492469 36.07937438-44.73842438 63.78833437-81.10643351 78.22008468-36.65664465 14.4317503-76.77690937 13.56584529-112.85628372-2.30908027-90.92002407-39.83163003-132.48346407-146.04930838-92.94046967-236.96933251 48.77931469-111.41310844 178.95369844-162.50150345 290.36680687-113.72218875 64.36560469 27.99759469 114.29945906 78.79735406 141.43114871 143.16295875 0.865905 2.02044469 1.73180998 4.32952498 2.59771505 6.34996969 1.44317532 3.46362 2.88634969 6.92724 4.04089032 10.39086zM805.62854789 772.06013188c-39.54299437 90.34275375-114.58809375 154.70835844-201.46722848 183.57185811-12.69994026 1.15453969-25.39987969 1.73180998-38.38845464 1.73181001-65.80877908 0-128.15393909-15.29765437-183.57185811-42.71797876 72.44738437 30.59530967 152.68791376 31.74984938 226.00120309 2.88634969 74.75646469-29.15213437 133.34936906-85.72459406 165.67648783-159.32651812 15.29765437-34.6362 21.647625-71.87011407 19.6271803-108.5267597-0.2886347-5.19543001-0.865905-10.10222531-1.44317533-15.29765436 2.59771501-7.2158747 9.52495501-12.69994026 17.60673471-12.6999403 7.50451031 0 13.85448 4.32952498 17.02946534 10.6794956 0.57727029 4.32952498 0.865905 8.65905001 1.15453965 12.98857501 2.88634969 42.71797972-4.61815969 86.01322876-22.22489436 126.7107628zM1176.52451882 50.76127436c0 4.90679531-2.02044469 9.23632031-4.90679529 12.69994034-2.59771501 1.44317532-4.90679531 3.17498527-7.21587469 4.90679531-35.50210498 26.55441939-59.17017469 93.80637373-53.10883975 173.4696328 0.2886347 4.61815969 0.865905 9.23632031 1.44317539 13.85448001-2.30908033 7.793145-9.52495501 13.56584529-17.89536937 13.56584435-6.92724 0-13.2772097-3.75225469-16.45219503-9.52495494-0.57727029-4.90679531-1.15453969-10.10222531-1.44317528-15.00901973-6.34996969-83.41551376 16.452195-165.38785313 64.07696901-202.3331325 4.90679531-3.75225469 10.10222531-7.2158747 15.58629004-10.39086001h1.1545406c6.92724 0 13.2772097 3.75225469 16.45219406 9.524955l1.73180998 4.04089032c0.57727029 1.73180998 0.57727029 3.46362 0.57727033 5.19542905zM1266.00136756 50.76127436c0 4.90679531-2.02044469 9.23632031-4.90679436 12.69994034-2.59771501 1.44317532-4.90679531 3.17498527-7.21587564 4.90679531-35.50210498 26.55441939-58.59290437 93.80637373-52.53156938 173.4696328 0.2886347 4.61815969 0.865905 9.23632031 1.44317533 13.85448001-2.30908033 7.793145-9.52495501 13.56584529-17.89536933 13.56584435-6.92724 0-13.2772097-3.75225469-16.45219507-9.52495494-0.57727029-4.90679531-1.15453969-10.10222531-1.44317528-15.00901973-6.34996969-83.41551376 15.87492469-165.38785313 63.49969968-202.3331325 4.90679531-3.75225469 10.10222531-7.2158747 15.58628998-10.39086001h1.15453969c6.92724 0 13.2772097 3.75225469 16.45219503 9.524955l1.73180997 4.04089032c0.2886347 1.73180998 0.57727029 3.46362 0.57726938 5.19542905z" p-id="10314"></path></svg>